<?xml version="1.0" standalone="no"?>
<!DOCTYPE svg PUBLIC "-//W3C//DTD SVG 20010904//EN"
 "http://www.w3.org/TR/2001/REC-SVG-20010904/DTD/svg10.dtd">
<svg version="1.0" xmlns="http://www.w3.org/2000/svg"
 width="512.000000pt" height="512.000000pt" viewBox="0 0 512.000000 512.000000"
 preserveAspectRatio="xMidYMid meet">

<g transform="translate(0.000000,512.000000) scale(0.100000,-0.100000)"
fill="#000000" stroke="none">
<path d="M2476 4469 c-100 -15 -207 -48 -302 -94 -298 -144 -487 -421 -560
-820 -25 -138 -26 -499 -2 -630 65 -347 235 -637 446 -762 l43 -26 -6 -51
c-11 -90 -34 -169 -72 -246 -28 -59 -55 -94 -127 -165 -140 -138 -273 -207
-639 -331 -120 -40 -241 -86 -269 -101 -119 -64 -206 -190 -230 -330 -14 -84
-1 -224 29 -315 l18 -53 1914 -3 c1061 -1 1919 2 1924 7 4 4 4 91 -2 197 -15
268 -49 389 -141 488 -57 61 -127 92 -267 115 -621 106 -942 302 -1008 616 -8
39 -14 88 -14 110 0 36 6 44 52 80 147 115 290 399 387 770 54 203 52 435 -6
695 -96 427 -315 699 -654 808 -145 47 -357 64 -514 41z m384 -73 c461 -77
743 -492 766 -1126 6 -162 6 -168 -26 -295 -64 -259 -149 -477 -242 -622 -51
-78 -133 -165 -180 -189 l-31 -16 7 -94 c14 -200 88 -340 246 -467 181 -145
419 -230 849 -302 136 -23 194 -57 248 -147 18 -29 42 -89 53 -132 21 -85 46
-384 32 -398 -4 -4 -847 -7 -1872 -6 l-1864 3 -13 50 c-21 78 -12 265 16 337
28 71 101 154 169 191 28 15 144 58 259 96 301 99 446 167 591 276 176 132
286 335 292 540 3 89 2 95 -11 95 -23 0 -128 81 -190 147 -150 159 -245 374
-285 645 -23 157 -15 470 15 611 100 461 367 737 780 807 78 13 302 11 391 -4z"/>
</g>
</svg>
